<svg xmlns="http://www.w3.org/2000/svg" xmlns:xlink="http://www.w3.org/1999/xlink" width="379.399" height="72.149" viewBox="0 0 379.399 72.149">
  <defs>
    <clipPath id="clip-path">
      <rect id="Rect치ngulo_12" data-name="Rect치ngulo 12" width="379.399" height="72.149" transform="translate(0 0)" fill="none"/>
    </clipPath>
  </defs>
  <g id="Grupo_19" data-name="Grupo 19" transform="translate(0 0)">
    <rect id="Rect치ngulo_11" data-name="Rect치ngulo 11" width="40.688" height="15.157" transform="translate(0 60.271) rotate(-45)" fill="#ed1c24"/>
    <path id="Trazado_2" data-name="Trazado 2" d="M.023,1.124V16.281H54.7V70.957H69.856V1.124Z" fill="#ed1c24"/>
    <g id="Grupo_2" data-name="Grupo 2">
      <g id="Grupo_1" data-name="Grupo 1" clip-path="url(#clip-path)">
        <path id="Trazado_3" data-name="Trazado 3" d="M175.771,36.174a38.4,38.4,0,0,1-2.648,14.34A33.181,33.181,0,0,1,154.686,69.4a35.536,35.536,0,0,1-13.99,2.748,37.966,37.966,0,0,1-14.59-2.8A35.732,35.732,0,0,1,106.52,50.264a34.861,34.861,0,0,1-2.9-14.19,35.638,35.638,0,0,1,10.643-25.632A36.353,36.353,0,0,1,126.006,2.8,37.7,37.7,0,0,1,140.5,0a39.15,39.15,0,0,1,16.388,3.5,34.7,34.7,0,0,1,12.692,9.594l-10.094,9.293a25.838,25.838,0,0,0-8.543-6.745A23.647,23.647,0,0,0,140.5,13.29a21.818,21.818,0,0,0-8.744,1.749,21.444,21.444,0,0,0-6.995,4.8,21.839,21.839,0,0,0-4.6,7.195,24.268,24.268,0,0,0-1.649,9.043,24,24,0,0,0,1.7,9.094,21.459,21.459,0,0,0,11.842,12.041,22.5,22.5,0,0,0,8.844,1.749,20.334,20.334,0,0,0,12.741-4.1,17.174,17.174,0,0,0,6.645-10.493H144.526L139.6,31.777h36.174Z" fill="#fff"/>
        <path id="Trazado_4" data-name="Trazado 4" d="M281.457,36.074a35,35,0,0,1-2.9,14.14,35.6,35.6,0,0,1-19.586,19.137,39.191,39.191,0,0,1-29.08,0,35.611,35.611,0,0,1-19.586-19.137,34.971,34.971,0,0,1-2.9-14.14,34.974,34.974,0,0,1,2.9-14.14A35.6,35.6,0,0,1,229.893,2.8a39.152,39.152,0,0,1,29.08,0,35.591,35.591,0,0,1,19.586,19.135,35.008,35.008,0,0,1,2.9,14.14m-14.889,0a23.675,23.675,0,0,0-1.7-9.044,22.568,22.568,0,0,0-4.647-7.2,21.346,21.346,0,0,0-7.045-4.8,22.186,22.186,0,0,0-8.794-1.749,21.817,21.817,0,0,0-8.744,1.749,21.457,21.457,0,0,0-7,4.8A22.535,22.535,0,0,0,224,27.03a23.637,23.637,0,0,0-1.7,9.044,23.733,23.733,0,0,0,1.7,8.994,22.373,22.373,0,0,0,4.647,7.245,21.426,21.426,0,0,0,7,4.8,21.8,21.8,0,0,0,8.744,1.749,22.168,22.168,0,0,0,8.794-1.749,21.316,21.316,0,0,0,7.045-4.8,22.406,22.406,0,0,0,4.647-7.245,23.772,23.772,0,0,0,1.7-8.994" fill="#fff"/>
        <path id="Trazado_5" data-name="Trazado 5" d="M318.942,59.958l8.3-10.392a46.464,46.464,0,0,0,11.741,7.744,29.676,29.676,0,0,0,11.942,2.448q6.493,0,10.392-2.4t3.9-6.4a6.614,6.614,0,0,0-2.648-5.6q-2.649-2-8.845-3l-13.89-2.4q-8.994-1.5-13.64-6.3a17.065,17.065,0,0,1-4.647-12.392A18.461,18.461,0,0,1,328.985,5.8Q336.43.1,349.121.1A48.018,48.018,0,0,1,364.46,2.7,44.248,44.248,0,0,1,378,9.893l-7.8,10.793a43.763,43.763,0,0,0-10.992-6.346,31.046,31.046,0,0,0-11.092-2.048,17.618,17.618,0,0,0-9.294,2.148,6.507,6.507,0,0,0-3.5,5.746,5.983,5.983,0,0,0,2.3,5q2.3,1.8,7.7,2.6l13.19,2.2q10.393,1.7,15.64,6.646T379.4,49.666a19.41,19.41,0,0,1-8.044,16.288q-8.045,6.1-21.434,6.1a44.9,44.9,0,0,1-16.539-3.2,46.821,46.821,0,0,1-14.44-8.894" fill="#fff"/>
      </g>
    </g>
  </g>
</svg>
