<svg xmlns="http://www.w3.org/2000/svg" viewBox="0 0 1920 1080"><defs><style>.cls-1{fill:#f50000;}.cls-2{fill:none;stroke:#f50000;stroke-miterlimit:10;stroke-width:2px;}</style></defs><g id="Layer_3" data-name="Layer 3"><path class="cls-1" d="M341.85,250.6v-129l-34.91,14v-33.7l49.35-19.75h24.56V250.6Z"/><path class="cls-1" d="M494,253.24q-22.87,0-40.09-10.83T427.2,212q-9.52-19.62-9.51-45.62,0-26.24,9.51-45.75t26.72-30.33Q471.14,79.42,494,79.41t40.08,10.84q17.22,10.83,26.73,30.33t9.51,45.75q0,26-9.51,45.62t-26.73,30.46Q516.89,253.24,494,253.24Zm0-33.7a33.08,33.08,0,0,0,20.34-6.38q8.55-6.37,13.24-18.42t4.7-28.41q0-16.62-4.7-28.53t-13.24-18.3a35.63,35.63,0,0,0-40.69,0q-8.55,6.39-13.24,18.3t-4.69,28.53q0,16.38,4.69,28.41t13.24,18.42A33.08,33.08,0,0,0,494,219.54Z"/><path d="M710.21,250.6V182L643.27,82.06h21.67l55.14,83.55L775,82.06h20.95L728.74,182.7v67.9Z"/><path d="M833,250.6V82.06H953.61V98.43H851.53v59h66.69v16.13H851.53v60.67H954.58V250.6Z"/><path d="M985.39,250.6l69.82-168.54h22.4L1147,250.6h-20.23l-21.19-53h-79.45l-21.43,53Zm47.19-68.86H1099l-33.22-82.58Z"/><path d="M1184.5,250.6V82.06h72.23q16.61,0,28.89,6a46.05,46.05,0,0,1,19.14,16.86q6.87,10.83,6.86,25.52,0,16.6-9.75,28.53t-26.12,16.73l37.8,74.88h-20.47L1257,178.13H1203V250.6ZM1203,162.48h52.49q17.09,0,27.32-8.67t10.23-23.35q0-14.45-10.23-23.12t-27.32-8.66H1203Z"/><path d="M1412.5,253a93.79,93.79,0,0,1-38.28-8.06A96.13,96.13,0,0,1,1342,221.7l12.27-12.76q13,14,27.81,20.95a72.14,72.14,0,0,0,31.18,7,61.27,61.27,0,0,0,23.48-4.21,37.57,37.57,0,0,0,16-11.8,27.65,27.65,0,0,0,5.77-17.21q0-13-9-20t-29.74-10.35l-24.31-3.85q-24.33-4.1-35.88-14.45T1348,126.84a41.53,41.53,0,0,1,7.47-24.55q7.45-10.59,20.82-16.5t30.94-5.89a109.41,109.41,0,0,1,35,5.77,108.2,108.2,0,0,1,31.42,16.62l-10.59,14.44q-27.69-20.94-56.58-20.94a55.75,55.75,0,0,0-21.19,3.73,33.1,33.1,0,0,0-14.2,10.35A24.88,24.88,0,0,0,1366,125.4q0,11.81,8,18.06t26.24,9.15l24.08,3.85Q1452,161,1464.5,172T1477,202.68a43.79,43.79,0,0,1-8.18,26.13q-8.19,11.43-22.75,17.81T1412.5,253Z"/><path d="M1527.67,127.13a39.21,39.21,0,0,1,2.92-15.23,37.07,37.07,0,0,1,8.21-12.25,38.12,38.12,0,0,1,12.36-8.15,39.75,39.75,0,0,1,15.3-2.93,44.66,44.66,0,0,1,17.64,3.52,47.81,47.81,0,0,1,14.59,9.61,45.15,45.15,0,0,1,10,14.18,41.61,41.61,0,0,1,3.63,17.23,39.12,39.12,0,0,1-2.93,15.24,37,37,0,0,1-8.2,12.24,38.17,38.17,0,0,1-12.31,8.15,39.53,39.53,0,0,1-15.35,2.93,44.49,44.49,0,0,1-17.64-3.52,47.81,47.81,0,0,1-14.59-9.61,45.15,45.15,0,0,1-10-14.18A41.57,41.57,0,0,1,1527.67,127.13Zm8.32.59a31.86,31.86,0,0,0,2.93,13.59,36,36,0,0,0,8,11.14,38.47,38.47,0,0,0,11.78,7.56,37.28,37.28,0,0,0,14.3,2.75,31.94,31.94,0,0,0,15.82-3.92,29.15,29.15,0,0,0,11.08-10.79,30,30,0,0,0,4-15.53A32.13,32.13,0,0,0,1601,119a35.7,35.7,0,0,0-8-11.2,38.1,38.1,0,0,0-11.77-7.55,37.14,37.14,0,0,0-14.3-2.76,31.57,31.57,0,0,0-15.77,3.93A29.51,29.51,0,0,0,1536,127.72Z"/><path d="M1529,185.73l82,17.46v57.55l-8-1.76V210.34l-29.3-6.32v32l-7.85-1.64v-32L1529,194.52Z"/><path d="M313.79,421.85v-129H415.48v27.45h-70v23.21h46.24v26.53H345.47v24.32h70.74v27.44Z"/><path d="M437,421.85l48.82-66.5L439.24,292.9H477l27.64,38.87,27.63-38.87h36.29l-45.87,62.45,49.74,66.5H534.66l-30.76-43.1-30.58,43.1Z"/><path d="M590.3,421.85v-129h68a46,46,0,0,1,22.57,5.44,40.29,40.29,0,0,1,21.27,36.38,39.13,39.13,0,0,1-5.71,20.91,40.37,40.37,0,0,1-15.65,14.64,46.7,46.7,0,0,1-22.48,5.35H622v46.23ZM622,349.46h32.61q7,0,11.23-4a13.86,13.86,0,0,0,4.24-10.5,14.38,14.38,0,0,0-4.24-10.78Q661.59,320,654.59,320H622Z"/><path d="M732.14,421.85v-129H833.83v27.45h-70v23.21h46.24v26.53H763.82v24.32h70.74v27.44Z"/><path d="M867,421.85v-129h65.95a51.26,51.26,0,0,1,23.58,5.25,39.86,39.86,0,0,1,16.12,14.56,39.32,39.32,0,0,1,5.8,21.27,37.27,37.27,0,0,1-6.63,21.74,42.11,42.11,0,0,1-17.5,14.55l28.19,51.58H947.12l-24.32-47H898.67v47Zm31.69-72.76H930q7.37,0,11.88-4a14.48,14.48,0,0,0,0-21Q937.36,320,930,320H898.67Z"/><path d="M1008.46,421.85v-129h31.69v129Z"/><path d="M1075.33,421.85v-129H1177v27.45h-70v23.21h46.24v26.53H1107v24.32h70.74v27.44Z"/><path d="M1210.18,421.85v-129H1240l58.58,74.8V292.9h29.84v129h-28L1240,344.12v77.73Z"/><path d="M1428.29,423.7a72.69,72.69,0,0,1-27.36-5.07,67.93,67.93,0,0,1-22-14.09,66.61,66.61,0,0,1-14.65-73.41A64,64,0,0,1,1379,310a69,69,0,0,1,22.1-14.1,74,74,0,0,1,48.18-1.93,76.19,76.19,0,0,1,19.06,8.75A56.85,56.85,0,0,1,1483,316.12l-21.37,21a45.81,45.81,0,0,0-15.2-12.9,39.72,39.72,0,0,0-18.14-4.24,36.72,36.72,0,0,0-26.16,10.69,35,35,0,0,0-7.74,11.79,39.38,39.38,0,0,0-2.76,14.92,37.11,37.11,0,0,0,2.85,14.64,36.63,36.63,0,0,0,7.92,11.79,35.16,35.16,0,0,0,12,7.83,39.88,39.88,0,0,0,15,2.77,37.93,37.93,0,0,0,17.41-4.06,44.76,44.76,0,0,0,14.46-12l20.82,20.45A59.21,59.21,0,0,1,1467.52,412a72.56,72.56,0,0,1-18.79,8.66A71,71,0,0,1,1428.29,423.7Z"/><path d="M1509.34,421.85v-129H1611v27.45h-70v23.21h46.24v26.53H1541v24.32h70.74v27.44Z"/><path class="cls-1" d="M314.09,554.79V476.55h19.22v30.07H365.5V476.55h19.23v78.24H365.5V524.16H333.31v30.63Z"/><path class="cls-1" d="M397.69,554.79V476.55h61.7V493.2H416.92v14.09H445v16.09H416.92v14.76h42.92v16.65Z"/><path class="cls-1" d="M471.13,554.79V476.55h19.22V537.8H531.6v17Z"/><path class="cls-1" d="M542.33,554.79V476.55h41.24a27.85,27.85,0,0,1,13.69,3.3,24.39,24.39,0,0,1,12.91,22.07,23.75,23.75,0,0,1-3.46,12.69,24.56,24.56,0,0,1-9.5,8.88,28.28,28.28,0,0,1-13.64,3.24h-22v28.06Zm19.22-43.93h19.79a9.43,9.43,0,0,0,6.81-2.46,8.38,8.38,0,0,0,2.57-6.37,8.73,8.73,0,0,0-2.57-6.54,9.33,9.33,0,0,0-6.81-2.51H561.55Z"/><path class="cls-1" d="M620,554.79V476.55h19.22v78.24Z"/><path class="cls-1" d="M652.2,554.79V476.55h18.11l35.54,45.38V476.55H724v78.24H707l-36.66-47.17v47.17Z"/><path class="cls-1" d="M776,556A43.58,43.58,0,0,1,759.61,553a41.41,41.41,0,0,1-13.35-8.61,40.27,40.27,0,0,1-9-44.49,40.25,40.25,0,0,1,22.08-21.46,43.08,43.08,0,0,1,16.32-3.07,44.18,44.18,0,0,1,18.77,4.08,38.28,38.28,0,0,1,14.42,11.23l-13.52,12.19a25.17,25.17,0,0,0-8.78-7.38A24.19,24.19,0,0,0,775.71,493a21.55,21.55,0,0,0-8.67,1.73,22.1,22.1,0,0,0-6.93,4.75,21.08,21.08,0,0,0-4.58,7.16,24.56,24.56,0,0,0-1.62,9,24.28,24.28,0,0,0,1.68,9.11,21.33,21.33,0,0,0,4.75,7.26,22.24,22.24,0,0,0,16,6.54A21.41,21.41,0,0,0,784.7,537a18.88,18.88,0,0,0,6.43-4.36,15.92,15.92,0,0,0,3.8-6.37H773.81V509.63h41.91v5.59a43.68,43.68,0,0,1-3,16.27,39.9,39.9,0,0,1-8.27,13A36.67,36.67,0,0,1,791.91,553,41,41,0,0,1,776,556Z"/><path d="M886.17,556.05a41.13,41.13,0,0,1-15.49-2.87,38.55,38.55,0,0,1-12.44-8,35.6,35.6,0,0,1-8.26-12,38.48,38.48,0,0,1-2.93-15.09,43.39,43.39,0,0,1,3.5-17.38,45.11,45.11,0,0,1,9.75-14.28,46.12,46.12,0,0,1,14.4-9.69,43.75,43.75,0,0,1,17.44-3.5,41,41,0,0,1,15.48,2.87,38.87,38.87,0,0,1,12.45,8,35.68,35.68,0,0,1,8.26,12.05,38.39,38.39,0,0,1,2.92,15.08,43.18,43.18,0,0,1-3.5,17.38A45.11,45.11,0,0,1,918,542.86a46.08,46.08,0,0,1-14.39,9.69A43.78,43.78,0,0,1,886.17,556.05Zm1.26-18.12a22.37,22.37,0,0,0,9.35-1.95,24.33,24.33,0,0,0,7.63-5.45,24.91,24.91,0,0,0,5.16-8.15,26.78,26.78,0,0,0,1.84-9.92,22,22,0,0,0-2.64-10.84,19.63,19.63,0,0,0-7.29-7.51,20.35,20.35,0,0,0-10.61-2.76,22.66,22.66,0,0,0-9.29,1.95,24.24,24.24,0,0,0-7.68,5.45,25.21,25.21,0,0,0-5.17,8.15,26.82,26.82,0,0,0-1.83,9.92,21.94,21.94,0,0,0,2.64,10.84,19.6,19.6,0,0,0,7.28,7.51A20.4,20.4,0,0,0,887.43,537.93Z"/><path d="M971.06,555.82q-11.82,0-19.68-5a25.81,25.81,0,0,1-10.89-14q-3-9-.52-20.82l8.83-41.53h19.39l-9.29,43.59a21.33,21.33,0,0,0,0,10.38,11.94,11.94,0,0,0,4.76,6.83,15.06,15.06,0,0,0,8.77,2.41,17.8,17.8,0,0,0,12.05-4.48,20.43,20.43,0,0,0,6.65-11.7l10-47h19.27l-10.44,49a44.05,44.05,0,0,1-7.57,17.33A36.51,36.51,0,0,1,989,551.92,40.33,40.33,0,0,1,971.06,555.82Z"/><path d="M1015.22,554.79l17.09-80.3h37.4a28.23,28.23,0,0,1,13.25,3,22,22,0,0,1,12.1,20.31,25.85,25.85,0,0,1-2.58,11.41,27.5,27.5,0,0,1-7.17,9.18,29.85,29.85,0,0,1-10.67,5.68l12.16,30.74h-20.42l-10.32-29.25h-15.38l-6.19,29.25Zm28.91-45.31h20.07a12.23,12.23,0,0,0,5.74-1.32,10.1,10.1,0,0,0,4-3.56,9,9,0,0,0,1.44-5,7.74,7.74,0,0,0-2.47-6,9.44,9.44,0,0,0-6.6-2.24H1048Z"/><path d="M1160.1,556.17a39.63,39.63,0,0,1-15.32-2.93,38.82,38.82,0,0,1-12.39-8.14,37.53,37.53,0,0,1-11.3-27.13,42.64,42.64,0,0,1,3.5-17.21,45.1,45.1,0,0,1,23.86-23.63,46.66,46.66,0,0,1,37.28.92,33.51,33.51,0,0,1,13.71,12.5l-15,12.62a22.7,22.7,0,0,0-8.21-8.55,22.12,22.12,0,0,0-11.41-2.92,22.46,22.46,0,0,0-9.29,1.95,23.45,23.45,0,0,0-7.63,5.45,25.9,25.9,0,0,0-6.94,17.84,21,21,0,0,0,2.81,10.78,20.26,20.26,0,0,0,7.69,7.57A22.13,22.13,0,0,0,1162.5,538a25.08,25.08,0,0,0,10.62-2.35,32.3,32.3,0,0,0,9.57-6.94l10.67,13.19a46.07,46.07,0,0,1-15.31,10.38A45.51,45.51,0,0,1,1160.1,556.17Z"/><path d="M1196.57,554.79l17.1-80.3h19.27l-13.43,62.86H1261l-3.67,17.44Z"/><path d="M1268.38,554.79l17.09-80.3h19.28l-17.1,80.3Z"/><path d="M1300.73,554.79l17.09-80.3h62.06l-3.67,17.09h-42.79L1330.33,506h28.21l-3.44,16.52h-28.22l-3.21,15.14h43.25l-3.67,17.09Z"/><path d="M1374.83,554.79l17.09-80.3h18.24l25.47,48.3,10.21-48.3h18.24L1447,554.79h-17.1l-26.15-50.13-10.67,50.13Z"/><path d="M1481.28,554.79l13.43-62.86H1468.9l3.78-17.44h70.78l-3.79,17.44h-25.58l-13.42,62.86Z"/><path d="M1574.32,555.94a53.34,53.34,0,0,1-21-4.13A48.44,48.44,0,0,1,1536.46,540l12.62-13.53a47.32,47.32,0,0,0,13,9.92,31.21,31.21,0,0,0,13.82,3.15,21.45,21.45,0,0,0,6.88-1,9.5,9.5,0,0,0,4.42-2.87,6.77,6.77,0,0,0,1.55-4.42,5.27,5.27,0,0,0-2.24-4.35q-2.23-1.73-7.51-3.1l-16.75-4.36q-8.37-2.3-12.73-7.46a19.2,19.2,0,0,1-4.36-12.85,24.15,24.15,0,0,1,3.84-13.76,24.93,24.93,0,0,1,11-8.89,41.38,41.38,0,0,1,16.86-3.16,52.66,52.66,0,0,1,19.44,3.68,47,47,0,0,1,16,10.21L1600.12,501a42.06,42.06,0,0,0-11.92-8.49,31.46,31.46,0,0,0-13.08-2.75,16,16,0,0,0-8.38,1.89,5.84,5.84,0,0,0-3.09,5.22,4.91,4.91,0,0,0,2,4.07,19.67,19.67,0,0,0,6.6,2.81l15.72,3.79q9.85,2.3,15,7.68a18.64,18.64,0,0,1,5.1,13.31,25.16,25.16,0,0,1-4.19,14.45,27.13,27.13,0,0,1-11.75,9.58A43.22,43.22,0,0,1,1574.32,555.94Z"/><path class="cls-1" d="M392.09,999.83V851.27H470.4a52.86,52.86,0,0,1,26,6.27,46.35,46.35,0,0,1,24.51,41.91,45.19,45.19,0,0,1-6.57,24.09,46.63,46.63,0,0,1-18,16.87,53.88,53.88,0,0,1-25.89,6.15H428.59v53.27Zm36.5-83.4h37.56q8.07,0,13-4.67a16,16,0,0,0,4.88-12.1,16.6,16.6,0,0,0-4.88-12.41q-4.89-4.79-13-4.78H428.59Z"/><path class="cls-1" d="M613.64,1002.16a82.42,82.42,0,0,1-31.19-5.83A77.69,77.69,0,0,1,557.19,980a76,76,0,0,1-16.87-24.41,77.55,77.55,0,0,1,0-60.06,75.92,75.92,0,0,1,16.87-24.4,77.52,77.52,0,0,1,25.26-16.34,86.24,86.24,0,0,1,62.39,0,77.48,77.48,0,0,1,25.25,16.34A76,76,0,0,1,687,895.52a77.67,77.67,0,0,1,0,60.06A76,76,0,0,1,670.09,980a77.64,77.64,0,0,1-25.25,16.34A82.44,82.44,0,0,1,613.64,1002.16Zm0-33.53a40.8,40.8,0,0,0,38.63-26,47.78,47.78,0,0,0,0-34.28,41.59,41.59,0,0,0-77.25,0,44.85,44.85,0,0,0-3.18,17,46.21,46.21,0,0,0,3.18,17.3,41,41,0,0,0,38.62,26Z"/><path class="cls-1" d="M744,999.83V883.53h-48.6V851.27h133.7v32.26h-48.6v116.3Z"/><path class="cls-1" d="M845.17,999.83V851.27H962.32V882.9H881.68v26.74h53.26V940.2H881.68v28h81.49v31.62Z"/><path class="cls-1" d="M984.6,999.83V851.27H1019l67.49,86.17V851.27h34.38V999.83h-32.26L1019,910.27v89.56Z"/><path class="cls-1" d="M1185.57,999.83V883.53H1137V851.27h133.69v32.26h-48.59v116.3Z"/><path class="cls-1" d="M1286.8,999.83V851.27h36.5V999.83Z"/><path class="cls-1" d="M1334.12,999.83,1395,851.27h41.81l60.06,148.56h-39.48L1443.84,964h-57.93l-13.8,35.87Zm62.82-64.94H1433l-17.83-47.54Z"/><path class="cls-1" d="M1507.72,999.83V851.27h36.5v116.3h78.31v32.26Z"/><path d="M352.82,991.88l-30.75-6.53v12.08l-3.36-.73V968.87l3.36.74v12.08l30.75,6.53Z"/><path d="M352.82,968l-34.11-7.26V957L334,960.3V940.85l-15.25-3.26v-3.71l34.11,7.26v3.71l-15.5-3.32V961l15.5,3.31Z"/><path d="M352.82,930.13l-34.11-7.26V898.94l3.31.73V919.9L334,922.48V909.22l3.27.69v13.25l12.28,2.63V905.33l3.31.68Z"/><path d="M352.82,897l-34.11-7.26v-3.66l34.11,7.27Z"/><path d="M352.82,882.32l-34.11-7.26v-13.5a11.7,11.7,0,0,1,1.05-5.14,7.86,7.86,0,0,1,2.94-3.34,8.5,8.5,0,0,1,4.54-1.17,10.37,10.37,0,0,1,5,1.2,10.61,10.61,0,0,1,3.73,3.29,11.73,11.73,0,0,1,2,4.87l14.91-4.82v3.84L338.15,865v10.58l14.67,3.12ZM335,874.87V864a9.75,9.75,0,0,0-.95-4.39,7.37,7.37,0,0,0-2.66-3,7.13,7.13,0,0,0-3.85-1.07,4.9,4.9,0,0,0-4,1.78,7.34,7.34,0,0,0-1.46,4.8v10Z"/><path d="M563.87,806.26V592H673.48q22,0,39.19,8.72a66.36,66.36,0,0,1,26.79,24.19q9.64,15.46,9.64,35.36a61.94,61.94,0,0,1-11,36.13A70.24,70.24,0,0,1,709,720.54l46.85,85.72H697.05l-40.41-78.07H616.53v78.07Zm52.66-120.93h52.05q12.24,0,19.75-6.74t7.5-17.45q0-10.71-7.5-17.45T668.58,637H616.53Z"/><path d="M776,806.26V592H945v45.62H828.7v38.57h76.85v44.09H828.7v40.41H946.27v45.62Z"/><path d="M960.35,806.26,1048.22,592h60.31l86.64,214.31h-56.94l-19.6-51.74h-83.58l-19.9,51.74ZM1051,712.58h52L1077.3,644Z"/><path d="M1306,809.32a120.73,120.73,0,0,1-45.46-8.42A112.67,112.67,0,0,1,1224,777.48a110.74,110.74,0,0,1-24.34-122,106.54,106.54,0,0,1,24.5-35.06A114.82,114.82,0,0,1,1260.84,597a122.76,122.76,0,0,1,80.07-3.21,126,126,0,0,1,31.68,14.54,94.42,94.42,0,0,1,24.34,22.19l-35.51,34.91Q1350.08,651,1336.16,644a65.85,65.85,0,0,0-30.16-7,61.07,61.07,0,0,0-43.47,17.76,58.42,58.42,0,0,0-12.86,19.6,65.43,65.43,0,0,0-4.59,24.8A61,61,0,0,0,1263,743a58.33,58.33,0,0,0,19.9,13,66.58,66.58,0,0,0,24.95,4.59,63.18,63.18,0,0,0,28.93-6.73,74.4,74.4,0,0,0,24-19.9l34.59,34a97.87,97.87,0,0,1-24.18,21.89A120.94,120.94,0,0,1,1340,804.27,117.67,117.67,0,0,1,1306,809.32Z"/><path d="M1417.75,806.26V592h52.66v82.36h88.17V592h52.66V806.26h-52.66V722.37h-88.17v83.89Z"/><path class="cls-1" d="M341.1,808.61,306,773.5l90.7-90.7,35.11,35.12ZM310.22,773.5l30.88,30.87,86.45-86.45-30.87-30.87Z"/><path class="cls-1" d="M524.66,807.89H475V639.57H306.67V589.91h218Zm-46.67-3h43.67v-212h-212v43.66H478Z"/><path class="cls-2" d="M358.34,233.25V107l-34.16,13.67v-33l48.3-19.32h24V233.25Z"/><path class="cls-2" d="M507.24,235.84q-22.39,0-39.23-10.6t-26.15-29.81q-9.32-19.2-9.31-44.64,0-25.68,9.31-44.77A70.87,70.87,0,0,1,468,76.33q16.85-10.59,39.23-10.6t39.23,10.6Q563.3,86.94,572.62,106t9.31,44.77q0,25.44-9.31,44.64t-26.15,29.81Q529.61,235.83,507.24,235.84Zm0-33a32.38,32.38,0,0,0,19.91-6.24q8.36-6.24,13-18t4.6-27.8q0-16.26-4.6-27.92t-13-17.91a34.88,34.88,0,0,0-39.82,0q-8.37,6.24-13,17.91t-4.59,27.92q0,16,4.59,27.8t13,18A32.34,32.34,0,0,0,507.24,202.85Z"/><path class="cls-2" d="M327.07,539.78V461.54h19.22v30.07h32.19V461.54h19.23v78.24H378.48V509.16H346.29v30.62Z"/><path class="cls-2" d="M410.67,539.78V461.54h61.7V478.2H429.9v14.08H458v16.1H429.9v14.75h42.92v16.65Z"/><path class="cls-2" d="M484.11,539.78V461.54h19.22v61.25h41.25v17Z"/><path class="cls-2" d="M555.31,539.78V461.54h41.24a27.85,27.85,0,0,1,13.69,3.3,24.93,24.93,0,0,1,9.45,9,24.67,24.67,0,0,1,3.46,13.08,23.74,23.74,0,0,1-3.46,12.68,24.51,24.51,0,0,1-9.5,8.89,28.39,28.39,0,0,1-13.64,3.24h-22v28Zm19.22-43.92h19.79a9.43,9.43,0,0,0,6.81-2.46,8.4,8.4,0,0,0,2.58-6.37,8.72,8.72,0,0,0-2.58-6.54,9.3,9.3,0,0,0-6.81-2.52H574.53Z"/><path class="cls-2" d="M633,539.78V461.54h19.22v78.24Z"/><path class="cls-2" d="M665.18,539.78V461.54h18.11l35.54,45.38V461.54h18.11v78.24H720l-36.66-47.16v47.16Z"/><path class="cls-2" d="M789,541a43.43,43.43,0,0,1-16.43-3.07,41.41,41.41,0,0,1-13.35-8.61,40.25,40.25,0,0,1-9-44.48,40.16,40.16,0,0,1,22.08-21.46,43.12,43.12,0,0,1,16.32-3.08,44.26,44.26,0,0,1,18.78,4.08,38.46,38.46,0,0,1,14.42,11.24l-13.53,12.18a25.23,25.23,0,0,0-8.77-7.38,24.26,24.26,0,0,0-10.9-2.46,21.3,21.3,0,0,0-8.66,1.74,21.56,21.56,0,0,0-6.93,4.75,20.91,20.91,0,0,0-4.59,7.15,24.64,24.64,0,0,0-1.62,9.05,24.24,24.24,0,0,0,1.68,9.11,21.37,21.37,0,0,0,4.75,7.27,22.35,22.35,0,0,0,16,6.54,21.32,21.32,0,0,0,8.33-1.57,18.79,18.79,0,0,0,6.42-4.36,15.85,15.85,0,0,0,3.8-6.37H786.79V494.63H828.7v5.59a43.46,43.46,0,0,1-3,16.26,39.68,39.68,0,0,1-8.27,13A37,37,0,0,1,804.9,538,41.06,41.06,0,0,1,789,541Z"/><path class="cls-1" d="M443.18,986.19h-38.5V835.63H484A54.18,54.18,0,0,1,510.47,842a48.57,48.57,0,0,1,18.31,17.44,48,48,0,0,1,6.72,25.34,46.3,46.3,0,0,1-6.73,24.62,47.72,47.72,0,0,1-18.41,17.22A55,55,0,0,1,484,932.92H443.18Zm-36.5-2h34.5V930.92H484a53,53,0,0,0,25.42-6,45.76,45.76,0,0,0,17.66-16.51,44.31,44.31,0,0,0,6.43-23.57,46,46,0,0,0-6.43-24.3,46.6,46.6,0,0,0-17.56-16.73A52.28,52.28,0,0,0,484,837.63H406.68Zm73.07-81.41H441.18V866.83h38.57c5.62,0,10.21,1.7,13.64,5.06A17.62,17.62,0,0,1,498.57,885a17,17,0,0,1-5.19,12.82C490,901.12,485.36,902.78,479.75,902.78Zm-36.57-2h36.57c5.08,0,9.2-1.47,12.25-4.39A14.88,14.88,0,0,0,496.57,885a15.7,15.7,0,0,0-4.58-11.7c-3-3-7.16-4.49-12.24-4.49H443.18Z"/><path class="cls-1" d="M627.24,988.52a83.8,83.8,0,0,1-31.57-5.91,79.16,79.16,0,0,1-25.58-16.55A77.2,77.2,0,0,1,553,941.34a78.59,78.59,0,0,1,0-60.86,77.25,77.25,0,0,1,17.09-24.72,79.05,79.05,0,0,1,25.58-16.55,87.28,87.28,0,0,1,63.14,0,78.94,78.94,0,0,1,25.58,16.55,77.25,77.25,0,0,1,17.09,24.72,78.59,78.59,0,0,1,0,60.86,77.36,77.36,0,0,1-17.09,24.72,79.05,79.05,0,0,1-25.58,16.55A83.84,83.84,0,0,1,627.24,988.52Zm0-153.22a81.92,81.92,0,0,0-30.82,5.76,77,77,0,0,0-24.94,16.13,75.42,75.42,0,0,0-16.65,24.09,76.63,76.63,0,0,0,0,59.26,75.22,75.22,0,0,0,16.65,24.08,77,77,0,0,0,24.94,16.14,85.33,85.33,0,0,0,61.64,0A77,77,0,0,0,683,964.62a75.09,75.09,0,0,0,16.66-24.08,76.63,76.63,0,0,0,0-59.26A75.29,75.29,0,0,0,683,857.19a77.15,77.15,0,0,0-24.93-16.13A81.92,81.92,0,0,0,627.24,835.3Zm0,119.69a42.29,42.29,0,0,1-30.53-12.61,42,42,0,0,1-9-14,47.33,47.33,0,0,1-3.26-17.66,46,46,0,0,1,3.26-17.36,42.58,42.58,0,0,1,79.1,0,48.65,48.65,0,0,1,0,35,41.48,41.48,0,0,1-22.6,23.26A42.67,42.67,0,0,1,627.24,955Zm0-86.16A40.61,40.61,0,0,0,611.08,872a39.78,39.78,0,0,0-21.54,22.05,44.11,44.11,0,0,0-3.11,16.61,45.46,45.46,0,0,0,3.11,16.92,40.51,40.51,0,0,0,75.4,0,46.74,46.74,0,0,0,0-33.53,40.13,40.13,0,0,0-37.7-25.26Z"/><path class="cls-1" d="M795.05,986.19H756.54V869.89h-48.6V835.63h135.7v34.26H795.05Zm-36.51-2h34.51V867.89h48.59V837.63H709.94v30.26h48.6Z"/><path class="cls-1" d="M977.76,986.19h-120V835.63H976.92v33.62H896.27V894h53.27v32.56H896.27v26h81.49Zm-118-2h116V954.56H894.27v-30h53.27V896H894.27V867.25h80.65V837.63H859.77Z"/><path class="cls-1" d="M1135.44,986.19H1101.7l-.3-.39-67.82-87.26v87.65H997.2V835.63h35.86l.3.38,65.7,83.88V835.63h36.38Zm-32.77-2h30.77V837.63h-32.38v88.06l-69-88.06H999.2V984.19h32.38V892.71Z"/><path class="cls-1" d="M1236.67,986.19h-38.5V869.89h-48.6V835.63h135.7v34.26h-48.6Zm-36.5-2h34.5V867.89h48.6V837.63h-131.7v30.26h48.6Z"/><path class="cls-1" d="M1337.9,986.19h-38.5V835.63h38.5Zm-36.5-2h34.5V837.63h-34.5Z"/><path class="cls-1" d="M1512,986.19h-41.65l-13.58-35.87h-56.56l-13.8,35.87h-40.16l.56-1.38L1408,835.63h43.15l.25.63Zm-40.27-2H1509l-59.25-146.56H1409.3l-60.09,146.56H1385l13.79-35.87h59.32Zm-23.65-62.94h-39l19.72-51.36Zm-36.07-2h33.18l-16.39-43.72Z"/><path class="cls-1" d="M1637.13,986.19H1520.31V835.63h38.51v116.3h78.31Zm-114.82-2h112.82V953.93h-78.31V837.63h-34.51Z"/></g></svg>