<svg id="Layer_1" data-name="Layer 1" xmlns="http://www.w3.org/2000/svg" viewBox="0 0 318.76 134.18"><path d="M224.94,105.62a20.43,20.43,0,0,1-3.38-1.47A7.48,7.48,0,0,1,218.2,98c0-.26,0-.52,0-.78q0-36.14,0-72.27c0-4.09,2.21-7.15,5.89-8.11a8.79,8.79,0,0,1,2.23-.27q29.58,0,59.15,0h.89v87.88c0,.4,0,.81,0,1.21Zm-1.53-15.53c1.91,0,3.72-.15,5.54-.15h52.13V21.75h-54.5c-2.19,0-3.17,1-3.17,3.21V90.09Zm57.67,5.06H226.69a8.42,8.42,0,0,0-.87,0A2.52,2.52,0,0,0,223.57,97c-.63,1.81.72,3.45,2.82,3.45h54.69Z"/><rect x="232.14" y="59.01" width="23.07" height="8.59" transform="translate(26.6 190.84) rotate(-45)"/><polygon points="232.49 34.89 232.49 43.48 263.49 43.48 263.49 74.49 272.09 74.49 272.09 34.89 232.49 34.89"/><path d="M292.94,117.65a1.83,1.83,0,0,1-.26-.21l-6.1-6.12a.57.57,0,0,1-.13-.14.3.3,0,0,1,.18-.5h3.55V102.9c0-.38.09-.47.47-.47h4.77c.37,0,.46.09.46.45v7.79h3.36a.75.75,0,0,1,.21,0,.3.3,0,0,1,.17.47.74.74,0,0,1-.12.13l-6.17,6.17a1.43,1.43,0,0,1-.24.19Z"/><path d="M19.09,68.41V41.13h8.45L34.29,54,41,41.13h8.46V68.41H43.17V49.82l-9,16.64-9-16.72V68.41Z"/><path d="M54,68.41V41.13H75.52v5.81H60.71v4.91h9.78v5.61H60.71V62.6h15v5.81Z"/><path d="M79.61,68.41V41.13H90.68a15,15,0,0,1,5.65,1,14.45,14.45,0,0,1,4.58,2.92A13.55,13.55,0,0,1,104,49.47a13.05,13.05,0,0,1,1.11,5.38,12.75,12.75,0,0,1-1.11,5.3,13.37,13.37,0,0,1-3.08,4.3,14.43,14.43,0,0,1-4.58,2.91,15,15,0,0,1-5.65,1Zm6.71-5.92h4.21a7.58,7.58,0,0,0,3-.59,7.69,7.69,0,0,0,4.07-4.07,7.58,7.58,0,0,0,.59-3,8,8,0,0,0-.59-3.06,7.35,7.35,0,0,0-1.64-2.48,7.8,7.8,0,0,0-2.43-1.65,7.26,7.26,0,0,0-3-.61H86.32Z"/><path d="M108.65,68.41V41.13h6.7V68.41Z"/><path d="M117.34,68.41l11.19-27.28h7.67l11,27.28H140l-2.5-6.59H126.85l-2.53,6.59Zm11.54-11.93h6.62l-3.27-8.73Z"/><path d="M149.22,68.41V41.13h6.71V53.05l11-11.92h8.11L162.43,54l13.33,14.46h-8.88L155.93,55.9V68.41Z"/><path d="M176.46,68.41V41.13h6.71V68.41Z"/><path d="M195.06,68.41V47.05h-8.93V41.13h24.55v5.92h-8.92V68.41Z"/></svg>