<svg id="Layer_1" data-name="Layer 1" xmlns="http://www.w3.org/2000/svg" viewBox="0 0 1018.02 1018.22"><defs><style>.cls-1{fill:#ed1c24;}</style></defs><path class="cls-1" d="M1106.38,390.25c-2.38-54.1-11.13-91.3-23.67-123.53a260.84,260.84,0,0,0-149-149C901.3,105.21,864.31,96.46,810.2,94.07c-54.51-2.58-71.81-3.18-210.05-3.18s-155.55.6-209.85,3C336.19,96.26,299,105,266.78,117.54a248.43,248.43,0,0,0-90.31,58.88,250.69,250.69,0,0,0-58.68,90.11C105.26,299,96.51,336,94.12,390c-2.58,54.51-3.18,71.82-3.18,210.06s.6,155.55,3,209.85c2.39,54.1,11.15,91.3,23.68,123.52a260.76,260.76,0,0,0,149,149C299,1095,336,1103.74,390.1,1106.12c54.3,2.4,71.61,3,209.86,3s155.54-.59,209.84-3c54.11-2.38,91.3-11.13,123.52-23.66a260.4,260.4,0,0,0,149-149c12.53-32.41,21.29-69.42,23.67-123.52,2.39-54.3,3-71.61,3-209.85s-.2-155.55-2.58-209.85ZM1014.68,806c-2.19,49.73-10.54,76.58-17.5,94.49a168.89,168.89,0,0,1-96.67,96.67c-17.91,7-45,15.31-94.49,17.5-53.71,2.39-69.81,3-205.66,3s-152.17-.59-205.69-3c-49.73-2.19-76.58-10.54-94.48-17.5a156.64,156.64,0,0,1-58.47-38,158.3,158.3,0,0,1-38-58.48c-7-17.9-15.32-45-17.5-94.49-2.39-53.7-3-69.82-3-205.67s.59-152.17,3-205.68c2.18-49.73,10.54-76.57,17.5-94.47a154.57,154.57,0,0,1,38.2-58.49,158,158,0,0,1,58.47-38c17.9-7,45-15.31,94.49-17.51,53.7-2.38,69.81-3,205.66-3,136.07,0,152.17.6,205.68,3,49.73,2.2,76.59,10.55,94.49,17.51a156.55,156.55,0,0,1,58.47,38,158.22,158.22,0,0,1,38,58.49c7,17.9,15.31,44.94,17.5,94.47,2.39,53.71,3,69.81,3,205.68s-.6,151.76-3,205.47Zm0,0" transform="translate(-90.94 -90.89)"/><path class="cls-1" d="M600.15,338.53c-144.41,0-261.57,117.15-261.57,261.57S455.74,861.67,600.15,861.67,861.71,744.51,861.71,600.1,744.56,338.53,600.15,338.53Zm0,431.24A169.68,169.68,0,1,1,769.82,600.1,169.7,169.7,0,0,1,600.15,769.77Zm0,0" transform="translate(-90.94 -90.89)"/><path class="cls-1" d="M933.13,328.19a61.07,61.07,0,1,1-61.07-61.07,61.07,61.07,0,0,1,61.07,61.07Zm0,0" transform="translate(-90.94 -90.89)"/></svg>