<svg id="Layer_1" data-name="Layer 1" xmlns="http://www.w3.org/2000/svg" viewBox="0 0 1018.02 1018.02"><defs><style>.cls-1{fill:#ed1c24;}</style></defs><path class="cls-1" d="M1015.11,65.29h-818c-55,0-100,45-100,100v818c0,55,45,100,100,100h818c55,0,100-45,100-100v-818C1115.14,110.3,1070.13,65.29,1015.11,65.29Zm-576,788.43H311.75V444.17H439.06Zm-64.5-459.8c-40.19,0-66.16-28.48-66.16-63.65,0-36,26.8-63.65,67.83-63.65s66.17,27.64,67,63.65C443.24,365.44,417.27,393.92,374.56,393.92Zm529.3,459.8H776.56v-227c0-52.76-18.44-88.77-64.5-88.77-35.18,0-56.1,24.29-65.32,47.73-3.35,8.37-4.2,20.1-4.2,31.83V853.72H515.24V574.82c0-51.08-1.67-93.79-3.34-130.65H622.45l5.87,56.95h2.5C647.57,474.32,688.62,435,757.3,435c83.75,0,146.56,56.13,146.56,176.73Z" transform="translate(-97.12 -65.29)"/></svg>