<svg id="Layer_1" data-name="Layer 1" xmlns="http://www.w3.org/2000/svg" viewBox="0 0 1018.22 1018.22"><defs><style>.cls-1{fill:#ed1c24;}</style></defs><path class="cls-1" d="M90.89,223.8V940.24a150.9,150.9,0,0,0,150.89,150.89H958.22a150.9,150.9,0,0,0,150.89-150.89V223.8A150.9,150.9,0,0,0,958.22,72.91H241.78A150.9,150.9,0,0,0,90.89,223.8ZM898.06,439.2q.36,9,.36,18c0,242-196.24,438.31-438.31,438.31a436.19,436.19,0,0,1-234.33-67.85h0c132.5,19.78,225.85-64.54,225.85-64.54-118-9.17-141.37-107.41-141.37-107.41,41.71,7,67.85-2.84,67.85-2.84C245.21,621.8,256.52,500.22,256.52,500.22c30.76,18.38,66.42,19.8,66.42,19.8-117.32-103.19-43.81-203.55-43.81-203.55,123,149,303.81,159.1,315.68,159.58a153.82,153.82,0,0,1,262.1-139.9c7.77-2.18,15.33-4.53,22.54-6.93,43.55-14.53,74.65-31.13,74.65-31.13-7.5,45-63,82.72-66.92,85.37a1.48,1.48,0,0,1-.23.14l.28,0c43-4.3,87-22.58,87-22.58C961,388.9,906.82,432.31,898.06,439.2Z" transform="translate(-90.89 -72.91)"/></svg>